HIERARCHY
ROOT Hips
{
	OFFSET 0.000000 71.427986 0.000000
	CHANNELS 6 Xposition Yposition Zposition Xrotation Yrotation Zrotation
	JOINT Pelvis
	{
		OFFSET 0.000000 0.000000 0.000000
		CHANNELS 3 Xrotation Yrotation Zrotation
		JOINT LeftUpLeg
		{
			OFFSET 6.797100 -2.508499 -1.318700
			CHANNELS 3 Xrotation Yrotation Zrotation
			JOINT LeftLeg
			{
				OFFSET 0.069008 -29.241863 0.690200
				CHANNELS 3 Xrotation Yrotation Zrotation
				JOINT LeftFoot
				{
					OFFSET -0.069008 -29.568123 -0.266800
					CHANNELS 3 Xrotation Yrotation Zrotation
					JOINT LeftToeBase
					{
						OFFSET 3.145500 -8.631000 16.059900
						CHANNELS 3 Xrotation Yrotation Zrotation
						End Site
						{
							OFFSET 0.000000 18.501587 0.000000
						}
					}
				}
			}
			JOINT Left_ShortSleeve
			{
				OFFSET 0.265923 -10.480953 1.153800
				CHANNELS 3 Xrotation Yrotation Zrotation
				End Site
				{
					OFFSET 1.725763 19.823879 0.000000
				}
			}
		}
		JOINT RightUpLeg
		{
			OFFSET -6.797100 -2.508499 -1.318700
			CHANNELS 3 Xrotation Yrotation Zrotation
			JOINT RightLeg
			{
				OFFSET -0.082453 -29.241932 0.688000
				CHANNELS 3 Xrotation Yrotation Zrotation
				JOINT RightFoot
				{
					OFFSET 0.082453 -29.568058 -0.264600
					CHANNELS 3 Xrotation Yrotation Zrotation
					JOINT RightToeBase
					{
						OFFSET -3.115300 -8.682800 16.113400
						CHANNELS 3 Xrotation Yrotation Zrotation
						End Site
						{
							OFFSET 0.000000 18.567114 0.000000
						}
					}
				}
			}
			JOINT Right_ShortSleeve
			{
				OFFSET -0.265923 -10.480953 1.153800
				CHANNELS 3 Xrotation Yrotation Zrotation
				End Site
				{
					OFFSET -1.725766 19.823910 0.000000
				}
			}
		}
	}
	JOINT Spine
	{
		OFFSET 0.000000 13.368103 0.470500
		CHANNELS 3 Xrotation Yrotation Zrotation
		JOINT Spine1
		{
			OFFSET 0.147000 13.837402 0.538800
			CHANNELS 3 Xrotation Yrotation Zrotation
			JOINT Spine2
			{
				OFFSET 0.168000 16.242897 -1.435500
				CHANNELS 3 Xrotation Yrotation Zrotation
				JOINT Neck
				{
					OFFSET 0.217200 18.631500 -1.679100
					CHANNELS 3 Xrotation Yrotation Zrotation
					JOINT Head
					{
						OFFSET 0.000000 6.599396 1.385900
						CHANNELS 3 Xrotation Yrotation Zrotation
						JOINT Hat
						{
							OFFSET -0.532200 27.220596 -10.096100
							CHANNELS 3 Xrotation Yrotation Zrotation
							End Site
							{
								OFFSET 0.000000 22.029861 0.000000
							}
						}
						JOINT HairD
						{
							OFFSET -10.777400 17.437393 -1.325900
							CHANNELS 3 Xrotation Yrotation Zrotation
							JOINT HairD1
							{
								OFFSET -3.290299 -11.051193 1.062200
								CHANNELS 3 Xrotation Yrotation Zrotation
								End Site
								{
									OFFSET 0.000000 11.579437 0.000000
								}
							}
						}
						JOINT HairB
						{
							OFFSET -10.777400 17.437393 1.467900
							CHANNELS 3 Xrotation Yrotation Zrotation
							JOINT HairB1
							{
								OFFSET -1.561200 -12.956299 3.590200
								CHANNELS 3 Xrotation Yrotation Zrotation
								End Site
								{
									OFFSET 0.000000 13.534866 0.000000
								}
							}
						}
						JOINT HairA
						{
							OFFSET 9.713100 17.437393 1.467900
							CHANNELS 3 Xrotation Yrotation Zrotation
							JOINT HairA1
							{
								OFFSET 1.561200 -12.956299 3.590200
								CHANNELS 3 Xrotation Yrotation Zrotation
								End Site
								{
									OFFSET 0.000000 13.534866 0.000000
								}
							}
						}
						JOINT HairC
						{
							OFFSET 9.713100 17.437393 -1.325900
							CHANNELS 3 Xrotation Yrotation Zrotation
							JOINT HairC1
							{
								OFFSET 3.290300 -11.051193 1.062200
								CHANNELS 3 Xrotation Yrotation Zrotation
								End Site
								{
									OFFSET 0.000000 11.579437 0.000000
								}
							}
						}
					}
				}
				JOINT LeftShoulder
				{
					OFFSET 5.101800 15.108002 -2.763700
					CHANNELS 3 Xrotation Yrotation Zrotation
					JOINT LeftArm
					{
						OFFSET 9.825497 2.506317 -1.597400
						CHANNELS 3 Xrotation Yrotation Zrotation
						JOINT LeftForeArm
						{
							OFFSET 21.966244 0.000000 0.000000
							CHANNELS 3 Xrotation Yrotation Zrotation
							JOINT LeftHand
							{
								OFFSET 33.879036 0.000000 0.000000
								CHANNELS 3 Xrotation Yrotation Zrotation
								JOINT LeftHandThumb1
								{
									OFFSET 6.715286 -2.359680 3.363841
									CHANNELS 3 Xrotation Yrotation Zrotation
									JOINT LeftHandThumb2
									{
										OFFSET 2.507072 -1.447464 1.447461
										CHANNELS 3 Xrotation Yrotation Zrotation
										JOINT LeftHandThumb3
										{
											OFFSET 2.898338 -1.673355 1.673357
											CHANNELS 3 Xrotation Yrotation Zrotation
											End Site
											{
												OFFSET -0.295959 3.727692 -0.131651
											}
										}
									}
								}
								JOINT LeftHandIndex1
								{
									OFFSET 14.190811 -0.254547 3.840278
									CHANNELS 3 Xrotation Yrotation Zrotation
									JOINT LeftHandIndex2
									{
										OFFSET 3.551727 0.000000 -0.000000
										CHANNELS 3 Xrotation Yrotation Zrotation
										JOINT LeftHandIndex3
										{
											OFFSET 2.894196 0.000000 0.000000
											CHANNELS 3 Xrotation Yrotation Zrotation
											End Site
											{
												OFFSET -1.000603 2.690872 0.366626
											}
										}
									}
								}
								JOINT LeftHandMiddle1
								{
									OFFSET 13.776489 0.000000 0.000000
									CHANNELS 3 Xrotation Yrotation Zrotation
									JOINT LeftHandMiddle2
									{
										OFFSET 3.438232 0.000000 0.000000
										CHANNELS 3 Xrotation Yrotation Zrotation
										JOINT LeftHandMiddle3
										{
											OFFSET 3.691551 0.000000 0.000000
											CHANNELS 3 Xrotation Yrotation Zrotation
											End Site
											{
												OFFSET -1.082298 3.499527 0.457670
											}
										}
									}
								}
								JOINT LeftHandRing1
								{
									OFFSET 13.966164 -0.268127 -3.067488
									CHANNELS 3 Xrotation Yrotation Zrotation
									JOINT LeftHandRing2
									{
										OFFSET 3.162567 0.000000 0.000000
										CHANNELS 3 Xrotation Yrotation Zrotation
										JOINT LeftHandRing3
										{
											OFFSET 3.324348 0.000000 0.000000
											CHANNELS 3 Xrotation Yrotation Zrotation
											End Site
											{
												OFFSET -0.861900 3.184998 0.405154
											}
										}
									}
								}
								JOINT LeftHandPinky1
								{
									OFFSET 13.131393 -0.168503 -5.746925
									CHANNELS 3 Xrotation Yrotation Zrotation
									JOINT LeftHandPinky2
									{
										OFFSET 2.849182 0.000000 0.000000
										CHANNELS 3 Xrotation Yrotation Zrotation
										JOINT LeftHandPinky3
										{
											OFFSET 2.805038 0.000000 0.000000
											CHANNELS 3 Xrotation Yrotation Zrotation
											End Site
											{
												OFFSET -0.882500 2.642609 0.325652
											}
										}
									}
								}
							}
							JOINT Left_Sleeve
							{
								OFFSET 6.592125 -0.646545 0.805568
								CHANNELS 3 Xrotation Yrotation Zrotation
								End Site
								{
									OFFSET -0.000179 20.275787 -0.000000
								}
							}
						}
					}
				}
				JOINT RightShoulder
				{
					OFFSET -5.731700 15.108002 -2.763700
					CHANNELS 3 Xrotation Yrotation Zrotation
					JOINT RightArm
					{
						OFFSET -9.825497 2.506317 -1.597400
						CHANNELS 3 Xrotation Yrotation Zrotation
						JOINT RightForeArm
						{
							OFFSET -21.966242 0.000000 0.000000
							CHANNELS 3 Xrotation Yrotation Zrotation
							JOINT RightHand
							{
								OFFSET -33.879032 0.000000 0.000000
								CHANNELS 3 Xrotation Yrotation Zrotation
								JOINT RightHandThumb1
								{
									OFFSET -6.715286 -2.359680 3.363841
									CHANNELS 3 Xrotation Yrotation Zrotation
									JOINT RightHandThumb2
									{
										OFFSET -2.507072 -1.447464 1.447461
										CHANNELS 3 Xrotation Yrotation Zrotation
										JOINT RightHandThumb3
										{
											OFFSET -2.898338 -1.673355 1.673357
											CHANNELS 3 Xrotation Yrotation Zrotation
											End Site
											{
												OFFSET 0.295959 3.727692 -0.131651
											}
										}
									}
								}
								JOINT RightHandIndex1
								{
									OFFSET -14.190811 -0.254547 3.840278
									CHANNELS 3 Xrotation Yrotation Zrotation
									JOINT RightHandIndex2
									{
										OFFSET -3.551727 0.000000 -0.000000
										CHANNELS 3 Xrotation Yrotation Zrotation
										JOINT RightHandIndex3
										{
											OFFSET -2.894196 0.000000 0.000000
											CHANNELS 3 Xrotation Yrotation Zrotation
											End Site
											{
												OFFSET 1.000603 2.690872 0.366626
											}
										}
									}
								}
								JOINT RightHandMiddle1
								{
									OFFSET -13.776489 0.000000 0.000000
									CHANNELS 3 Xrotation Yrotation Zrotation
									JOINT RightHandMiddle2
									{
										OFFSET -3.438232 0.000000 0.000000
										CHANNELS 3 Xrotation Yrotation Zrotation
										JOINT RightHandMiddle3
										{
											OFFSET -3.691551 0.000000 0.000000
											CHANNELS 3 Xrotation Yrotation Zrotation
											End Site
											{
												OFFSET 1.082298 3.499527 0.457670
											}
										}
									}
								}
								JOINT RightHandRing1
								{
									OFFSET -13.966164 -0.268127 -3.067488
									CHANNELS 3 Xrotation Yrotation Zrotation
									JOINT RightHandRing2
									{
										OFFSET -3.162567 0.000000 0.000000
										CHANNELS 3 Xrotation Yrotation Zrotation
										JOINT RightHandRing3
										{
											OFFSET -3.324348 0.000000 0.000000
											CHANNELS 3 Xrotation Yrotation Zrotation
											End Site
											{
												OFFSET 0.861900 3.184998 0.405154
											}
										}
									}
								}
								JOINT RightHandPinky1
								{
									OFFSET -13.131393 -0.168503 -5.746925
									CHANNELS 3 Xrotation Yrotation Zrotation
									JOINT RightHandPinky2
									{
										OFFSET -2.849182 0.000000 0.000000
										CHANNELS 3 Xrotation Yrotation Zrotation
										JOINT RightHandPinky3
										{
											OFFSET -2.805038 0.000000 0.000000
											CHANNELS 3 Xrotation Yrotation Zrotation
											End Site
											{
												OFFSET 0.882500 2.642609 0.325652
											}
										}
									}
								}
							}
							JOINT Right_Sleeve
							{
								OFFSET -6.592125 -0.646545 0.805568
								CHANNELS 3 Xrotation Yrotation Zrotation
								End Site
								{
									OFFSET 0.000179 20.275787 -0.000000
								}
							}
						}
					}
				}
				JOINT Bind_Right_JacketString
				{
					OFFSET -3.534800 11.969597 7.200700
					CHANNELS 3 Xrotation Yrotation Zrotation
					JOINT Bind_Right_JacketString1
					{
						OFFSET -0.319900 -6.102600 2.794100
						CHANNELS 3 Xrotation Yrotation Zrotation
						End Site
						{
							OFFSET 0.000000 6.719452 0.000000
						}
					}
				}
				JOINT Bind_Left_JacketString
				{
					OFFSET 2.904800 11.969597 7.200700
					CHANNELS 3 Xrotation Yrotation Zrotation
					JOINT Bind_Left_JacketString1
					{
						OFFSET 0.364800 -5.904503 3.186800
						CHANNELS 3 Xrotation Yrotation Zrotation
						End Site
						{
							OFFSET 0.000000 6.719513 0.000000
						}
					}
				}
				JOINT HairE
				{
					OFFSET 5.915200 17.612701 -11.592200
					CHANNELS 3 Xrotation Yrotation Zrotation
					JOINT HairE1
					{
						OFFSET 0.289200 -7.171898 -1.284500
						CHANNELS 3 Xrotation Yrotation Zrotation
						End Site
						{
							OFFSET 0.000000 7.291756 0.000000
						}
					}
				}
				JOINT HairF
				{
					OFFSET -0.864800 17.612701 -11.592200
					CHANNELS 3 Xrotation Yrotation Zrotation
					JOINT HairF1
					{
						OFFSET 0.000000 -14.087097 -2.127501
						CHANNELS 3 Xrotation Yrotation Zrotation
						End Site
						{
							OFFSET 0.000000 14.246841 0.000000
						}
					}
				}
				JOINT HairG
				{
					OFFSET -8.087700 17.612701 -11.592200
					CHANNELS 3 Xrotation Yrotation Zrotation
					JOINT HairG1
					{
						OFFSET -0.293600 -6.081398 -0.910100
						CHANNELS 3 Xrotation Yrotation Zrotation
						End Site
						{
							OFFSET 0.000000 6.156120 0.000000
						}
					}
				}
			}
		}
	}
	JOINT Pouch
	{
		OFFSET 0.000000 4.394501 10.847300
		CHANNELS 3 Xrotation Yrotation Zrotation
		End Site
		{
			OFFSET 0.000000 21.880577 0.000000
		}
	}
	JOINT Bag
	{
		OFFSET -13.229000 4.813004 -0.593300
		CHANNELS 3 Xrotation Yrotation Zrotation
		End Site
		{
			OFFSET 0.000000 21.880577 0.000000
		}
	}
	JOINT OccupyGuyFacialAnim_Joint
	{
		OFFSET 1.000000 -70.206398 -1.655000
		CHANNELS 3 Xrotation Yrotation Zrotation
		End Site
		{
			OFFSET 0.000000 21.880577 0.000000
		}
	}
}
MOTION
Frames: 4
Frame Time: 0.033333
-0.264475 72.268532 0.409906 -3.422946 3.900836 -3.329041 0.000000 0.000000 -0.000000 -25.676887 -10.412197 0.040863 58.905867 0.851147 -0.103841 3.985500 1.868513 9.033836 0.000002 -0.000000 0.000000 0.000001 0.000001 0.000000 -13.174421 -10.453810 7.417761 38.402803 -0.907095 0.140089 0.153801 0.423039 -7.099447 0.000001 0.000000 -0.000000 0.000001 0.000000 0.000000 7.483737 -0.365743 -0.643208 -2.114715 -0.634068 1.955413 -2.107414 -0.526124 1.991270 -6.842545 -2.682119 0.508911 2.526786 0.702883 0.466853 0.000000 0.000000 0.000000 0.000000 0.000000 0.000000 0.000000 0.000000 0.000000 0.000000 0.000000 0.000000 0.000000 0.000000 0.000000 0.000000 0.000000 0.000000 0.000000 0.000000 0.000000 0.000000 0.000000 0.000000 0.000000 0.000000 0.000000 1.091371 1.577354 -3.543026 -1.200557 1.494175 -78.013061 20.698924 -13.813612 -0.073942 -0.026795 -3.255412 -0.412131 10.557715 -2.873382 25.085799 -5.464144 26.111883 -7.055766 -0.000000 -0.000000 -0.000001 2.372198 3.636006 -10.145435 -2.155734 2.456270 -20.339689 -0.000000 -0.000000 0.000001 -1.984297 5.666068 -18.668022 0.262844 5.090461 -32.022461 0.000003 0.000001 -0.000003 -4.974556 10.107076 -16.316173 4.008924 4.056173 -38.803698 0.000000 0.000001 -0.000001 -6.472577 11.328372 -26.083985 10.736419 2.575063 -37.642521 -0.000001 0.000000 0.000001 0.000001 0.000001 -0.000000 0.487473 5.285024 4.297994 -7.282523 4.832127 74.584853 13.988534 13.383120 -4.466977 0.106877 3.530102 -2.699050 15.566049 -0.729130 -16.762754 -6.579403 -24.370065 7.035579 0.000000 -0.000001 0.000002 2.252285 -2.297215 4.747763 -2.162970 -2.444704 14.947879 0.000002 -0.000001 0.000004 -1.987018 -5.675773 8.743282 0.263323 -5.087432 22.099598 -0.000001 -0.000001 0.000001 -4.977276 -10.114516 7.762270 4.005873 -4.045819 30.251027 0.000001 -0.000003 0.000001 -6.472726 -11.324482 16.980586 10.704495 -2.553602 28.536044 0.000003 -0.000000 0.000001 0.000001 -0.000001 0.000001 0.000000 -0.000000 0.000000 0.000000 -0.000000 0.000000 0.000000 -0.000000 -0.000000 0.000000 -0.000000 -0.000000 0.000000 -0.000000 0.000000 0.000000 -0.000000 -0.000000 0.000000 -0.000000 -0.000000 0.000000 -0.000000 -0.000000 0.000000 -0.000000 0.000000 0.000000 -0.000000 -0.000000 0.000000 0.000000 -0.000000 0.000000 0.000000 -0.000000 0.000000 0.000000 -0.000000 
0.020663 72.868240 2.506901 -1.977514 4.265326 -1.510350 -0.000000 -0.000001 0.000000 -28.630411 -10.310326 -2.282941 51.018334 -0.744034 -0.287258 6.004416 3.348771 11.121327 -0.000002 0.000001 -0.000001 0.000002 0.000001 0.000000 -10.917759 -13.144526 4.521677 35.527133 3.297967 0.420817 -0.577537 0.557299 -8.105979 -0.000002 0.000000 0.000000 0.000001 -0.000000 -0.000000 4.033174 -0.908859 -2.126180 -1.283011 -1.069121 1.684779 -1.337040 -0.923089 1.861868 -6.750578 -2.139370 1.485901 2.423268 1.798130 -0.343986 -0.000000 0.000000 0.000000 -0.000000 0.000000 0.000000 -0.000000 0.000000 0.000000 -0.000000 0.000000 0.000000 -0.000000 -0.000000 0.000000 -0.000000 0.000000 0.000000 -0.000000 -0.000000 0.000000 -0.000000 0.000000 0.000000 -0.000000 0.000000 0.000000 1.086390 1.645493 -3.843781 -0.620696 0.787449 -77.513372 20.008892 -13.791217 -0.103928 -0.157785 -2.856227 0.051782 10.590879 -2.785510 25.080417 -5.495424 26.063037 -7.054574 -0.000001 -0.000000 -0.000002 2.359873 3.531192 -10.301652 -2.155790 2.454288 -20.238175 0.000003 0.000001 0.000000 -1.987417 5.662087 -18.598754 0.262788 5.090437 -32.020074 0.000000 -0.000001 0.000001 -4.973877 10.104021 -16.168716 4.009025 4.058793 -38.917919 -0.000001 0.000004 -0.000000 -6.480005 11.324678 -25.796960 10.739432 2.578584 -37.838493 0.000001 -0.000002 0.000002 0.000002 0.000000 -0.000000 0.517820 6.592980 4.572334 -8.263466 5.192916 74.285711 19.753686 16.019329 -7.824418 -4.264285 1.184952 -1.757664 15.537975 -0.709040 -16.812909 -6.798781 -24.029565 7.036433 0.000001 0.000002 0.000003 2.241937 -2.201452 4.778591 -2.162622 -2.443300 14.695965 -0.000002 0.000003 -0.000003 -2.009929 -5.579180 8.650488 0.260877 -5.086825 22.015718 -0.000001 0.000000 0.000001 -4.975503 -10.112635 7.497190 4.005699 -4.046640 30.286162 0.000005 -0.000001 -0.000001 -6.472472 -11.322288 16.539638 10.710693 -2.568562 28.671812 -0.000003 0.000000 -0.000001 0.000000 0.000001 -0.000002 0.000000 0.000000 -0.000000 0.000000 0.000000 -0.000000 0.000000 0.000000 -0.000000 0.000000 0.000000 -0.000000 0.000000 0.000000 -0.000000 0.000000 0.000000 -0.000000 0.000000 0.000000 -0.000000 0.000000 0.000000 -0.000000 0.000000 0.000000 -0.000000 0.000000 0.000000 -0.000000 -0.000000 -0.000001 0.000000 -0.000000 -0.000001 0.000000 -0.000000 -0.000001 0.000000 
0.273324 73.244621 4.521061 -1.109934 3.674854 -0.103603 0.000000 0.000000 -0.000000 -27.902136 -7.127598 -2.564814 37.317411 -3.607419 -0.441160 11.474509 3.781232 9.020245 0.000003 -0.000000 0.000001 0.000002 0.000000 0.000000 -9.760519 -13.667245 2.273224 34.443145 3.220116 0.648404 -1.548851 0.398276 -7.461665 0.000000 -0.000000 -0.000000 0.000001 0.000000 -0.000000 2.210404 -0.832792 -3.871829 -0.920295 -1.094212 1.893486 -1.023669 -0.901018 2.115421 -7.131039 -1.438150 1.242504 2.685251 2.385951 -0.485490 -0.000000 0.000000 0.000000 -0.000000 0.000000 0.000000 -0.000000 0.000000 0.000000 -0.000000 0.000000 0.000000 -0.000000 0.000000 0.000000 -0.000000 0.000000 0.000000 -0.000000 0.000000 0.000000 -0.000000 0.000000 0.000000 -0.000000 0.000000 0.000000 1.081212 1.840323 -4.152739 1.071829 -0.419882 -76.835790 18.787830 -14.344449 0.117329 -0.486845 -2.481561 0.450876 10.624746 -2.695658 25.075100 -5.523835 26.018637 -7.053570 -0.000000 0.000001 0.000001 2.347623 3.427261 -10.472742 -2.155887 2.452436 -20.140805 -0.000000 0.000000 -0.000002 -1.990418 5.658140 -18.533800 0.262753 5.090420 -32.018209 0.000001 0.000001 0.000001 -4.973190 10.101084 -16.026411 4.009094 4.061689 -39.042779 0.000002 0.000000 0.000002 -6.487258 11.321026 -25.516175 10.742736 2.582410 -38.052907 -0.000003 -0.000003 0.000001 0.000004 0.000000 -0.000001 0.585090 6.819690 4.120133 -10.636726 0.892107 74.516169 23.861939 19.079111 -8.882623 -0.990629 0.562814 -0.893999 15.462490 -0.654719 -16.948172 -7.388035 -23.110917 7.045638 0.000000 0.000000 0.000002 2.214110 -1.943108 4.861827 -2.161329 -2.442828 14.016024 -0.000003 0.000000 -0.000001 -2.070161 -5.318308 8.400471 0.254235 -5.084964 21.789278 0.000002 -0.000000 -0.000001 -4.970575 -10.110926 6.781616 4.005324 -4.048907 30.380938 -0.000003 -0.000003 -0.000001 -6.471921 -11.319839 15.349424 10.731504 -2.608688 29.038116 0.000001 0.000000 0.000001 0.000001 0.000002 -0.000001 0.000000 -0.000000 -0.000000 -0.000000 0.000000 0.000000 0.000000 -0.000000 -0.000000 0.000000 -0.000000 -0.000000 0.000000 -0.000000 -0.000000 -0.000000 0.000000 0.000000 0.000000 -0.000000 -0.000000 0.000000 -0.000000 -0.000000 0.000000 -0.000000 -0.000000 -0.000000 0.000000 0.000000 0.000000 0.000000 -0.000000 0.000000 0.000000 -0.000000 0.000000 0.000000 -0.000000 
0.811301 73.312546 6.403707 0.053633 1.408561 0.618996 -0.000000 -0.000000 -0.000000 -25.116904 -0.300071 -1.850772 20.122753 -7.398140 -0.607392 20.111752 2.403625 4.909352 0.000001 0.000000 -0.000000 -0.000002 -0.000000 0.000000 -9.015106 -15.232205 -0.063065 33.741278 7.682645 1.505672 -3.660041 -0.661448 -9.741538 -0.000000 -0.000000 -0.000000 0.000000 -0.000001 -0.000000 0.900712 -0.287984 -3.824701 -0.910307 -0.540008 1.681110 -0.990760 -0.354794 1.887035 -7.816814 -0.490422 0.044304 3.257529 2.715323 -0.224731 -0.000000 0.000000 0.000000 -0.000000 0.000000 0.000000 -0.000000 0.000000 0.000000 -0.000000 0.000000 0.000000 -0.000000 0.000000 0.000000 -0.000000 0.000000 0.000000 -0.000000 0.000000 0.000000 -0.000000 0.000000 0.000000 -0.000000 0.000000 0.000000 1.076532 2.131038 -4.464040 3.294745 -2.013047 -76.106906 17.164648 -14.684147 0.293036 -0.948473 -2.543667 0.967135 10.659114 -2.604298 25.069682 -5.550009 25.977682 -7.052666 -0.000000 0.000001 -0.000002 2.335420 3.324054 -10.655489 -2.155964 2.450621 -20.046791 -0.000001 0.000001 -0.000000 -1.993295 5.654209 -18.472201 0.262680 5.090403 -32.016829 -0.000000 0.000000 -0.000001 -4.972535 10.098248 -15.888176 4.009223 4.064778 -39.176046 -0.000002 0.000000 -0.000001 -6.494363 11.317410 -25.240307 10.746262 2.586442 -38.281540 -0.000001 -0.000002 0.000003 -0.000001 -0.000000 -0.000000 0.754699 6.861865 2.920633 -11.862763 0.525132 75.328715 23.630042 21.242349 -9.105668 1.595202 4.187400 -1.348839 15.352179 -0.574978 -17.145557 -8.242489 -21.768513 7.077264 0.000000 0.000001 -0.000002 2.173423 -1.565480 4.983849 -2.159163 -2.442123 13.022335 -0.000001 0.000001 -0.000001 -2.154132 -4.936032 8.036178 0.254106 -5.081772 21.458945 0.000002 0.000000 0.000001 -4.966672 -10.108362 5.735313 4.004834 -4.052239 30.519317 -0.000000 -0.000002 -0.000000 -6.470973 -11.316310 13.610031 10.762873 -2.666845 29.573517 0.000003 0.000002 -0.000001 0.000001 -0.000000 -0.000001 -0.000000 -0.000000 0.000000 -0.000000 -0.000000 0.000000 -0.000000 -0.000000 0.000000 -0.000000 -0.000000 0.000000 -0.000000 -0.000000 0.000000 -0.000000 -0.000000 0.000000 -0.000000 -0.000000 0.000000 -0.000000 -0.000000 0.000000 -0.000000 -0.000000 0.000000 -0.000000 -0.000000 0.000000 -0.000000 -0.000000 -0.000000 -0.000000 -0.000000 -0.000000 -0.000000 -0.000000 -0.000000 
